<?xml version="1.0"?>
<svg xmlns="http://www.w3.org/2000/svg" xmlns:xlink="http://www.w3.org/1999/xlink" xmlns:svgjs="http://svgjs.com/svgjs" version="1.1" width="512" height="512" x="0" y="0" viewBox="0 0 272.449 272.449" style="enable-background:new 0 0 512 512" xml:space="preserve" class=""><g>
<g xmlns="http://www.w3.org/2000/svg">
	<path d="M136.196,58.786c-6.138,0-12.489,0.295-18.879,0.876c-4.4,0.399-7.643,4.291-7.243,8.691c0.4,4.399,4.286,7.64,8.692,7.242   c5.91-0.537,11.774-0.81,17.43-0.81c5.602,0,11.461,0.302,17.413,0.896c0.271,0.027,0.539,0.041,0.806,0.041   c4.06,0,7.538-3.079,7.951-7.205c0.439-4.396-2.768-8.316-7.165-8.756C148.722,59.114,142.328,58.786,136.196,58.786z" fill="#8775ff" data-original="#000000" style="" class=""/>
	<path d="M118.58,51.776c5.991-0.382,11.927-0.576,17.644-0.576c5.717,0,11.653,0.194,17.644,0.576l0.034,0.002   c2.121,0.135,4.208-0.587,5.791-2.006l20.524-18.393c1.676-1.502,2.634-3.647,2.634-5.898v-0.036   c0-7.536-5.537-16.336-21.141-16.336c-0.551,0-1.102,0.011-1.651,0.032c-2.082,0.08-4.081-0.736-5.653-2.105   C149.776,3.003,143.262,0,136.225,0c-7.037,0-13.551,3.004-18.182,7.037c-1.571,1.369-3.57,2.184-5.652,2.104   c-0.549-0.021-1.1-0.032-1.651-0.032c-15.605,0-21.142,8.8-21.142,16.336v0.036c0,2.251,0.958,4.396,2.634,5.898l20.524,18.393   c1.583,1.419,3.669,2.141,5.791,2.006L118.58,51.776z" fill="#8775ff" data-original="#000000" style="" class=""/>
	<g>
		<path d="M243.865,180.814c-7.454-77.353-55.657-99.738-107.64-99.738s-100.187,22.386-107.64,99.738    c-6.239,64.744,14.428,91.636,85.463,91.636h44.355C229.437,272.449,250.103,245.558,243.865,180.814z M146.011,226.66v7.482    c0,5.392-4.386,9.778-9.778,9.778c-5.392,0-9.778-4.387-9.778-9.778v-7.008c-8.856-1.268-16.826-4.432-22.194-8.866    c-5.582-4.568-5.386-11.86-2.363-16.396l0.181-0.271l0.23-0.23c2.611-2.611,5.375-3.936,8.215-3.936    c2.384,0,4.741,0.929,7.008,2.76c4.283,2.878,12.447,5.767,19.906,5.767c7.637-0.001,11.886-2.873,12.634-8.537    c-0.665-4.667-7.092-6.797-17.488-9.71c-7.325-2.052-15.629-4.378-21.824-8.979c-7.434-5.521-10.635-13.52-9.516-23.774    c0.815-6.889,4.162-12.842,9.683-17.245c4.177-3.333,9.501-5.723,15.527-6.989v-4.821c0-5.391,4.386-9.777,9.778-9.777    c5.392,0,9.778,4.387,9.778,9.777v4.708c6.285,1.224,11.861,3.616,16.256,6.993l0.064,0.051c4.076,3.298,5.575,7.904,4.011,12.324    c-1.489,4.209-5.386,7.035-9.697,7.035c-2.127,0-4.23-0.704-6.09-2.04c-4.057-2.545-10.417-4.251-15.868-4.251    c-4.565,0-10.229,1.114-11.339,6.415c-0.851,5.417,4.568,7.507,17.087,10.972c7.067,1.954,15.078,4.171,21.28,8.348    c7.487,5.043,11.161,12.254,10.919,21.431C172.228,212.727,162.342,223.321,146.011,226.66z" fill="#8775ff" data-original="#000000" style="" class=""/>
		<path d="M138.68,174.458c-5.788-1.602-11.255-3.114-15.284-5.521c-5.234-3.126-7.433-7.475-6.536-12.924l0.021-0.118    c1.509-7.471,7.999-11.754,17.806-11.754c6.736,0,14.383,2.092,19.48,5.328l0.182,0.124c0.758,0.557,1.531,0.839,2.296,0.839    c1.479,0,2.947-1.113,3.49-2.647c0.606-1.713-0.073-3.481-1.914-4.983c-4.077-3.121-9.736-5.298-15.941-6.131l-2.854-0.384    v-10.382c0-1.761-1.433-3.193-3.193-3.193c-1.761,0-3.194,1.433-3.194,3.193v10.419l-2.813,0.415    c-12.87,1.896-21.258,8.987-22.439,18.966c-1.796,16.45,9.355,20.845,26.574,25.669c10.544,2.954,21.446,6.008,22.305,15.771    l0.028,0.318l-0.033,0.316c-0.993,9.383-7.999,14.765-19.222,14.765c-7.945,0.001-17.704-2.872-23.731-6.988l-0.237-0.178    c-1.095-0.901-2.087-1.359-2.947-1.359c-0.965,0-2.076,0.592-3.307,1.76c-1.092,1.887-1.406,5.251,1.225,7.403    c4.983,4.115,12.854,6.936,21.608,7.747l2.988,0.276v12.937c0,1.761,1.433,3.193,3.194,3.193c1.761,0,3.193-1.433,3.193-3.193    v-13.087l2.811-0.415c7.001-1.032,23.333-5.335,23.815-22.926C166.433,183.261,154.948,178.958,138.68,174.458z" fill="#8775ff" data-original="#000000" style="" class=""/>
	</g>
</g>
<g xmlns="http://www.w3.org/2000/svg">
</g>
<g xmlns="http://www.w3.org/2000/svg">
</g>
<g xmlns="http://www.w3.org/2000/svg">
</g>
<g xmlns="http://www.w3.org/2000/svg">
</g>
<g xmlns="http://www.w3.org/2000/svg">
</g>
<g xmlns="http://www.w3.org/2000/svg">
</g>
<g xmlns="http://www.w3.org/2000/svg">
</g>
<g xmlns="http://www.w3.org/2000/svg">
</g>
<g xmlns="http://www.w3.org/2000/svg">
</g>
<g xmlns="http://www.w3.org/2000/svg">
</g>
<g xmlns="http://www.w3.org/2000/svg">
</g>
<g xmlns="http://www.w3.org/2000/svg">
</g>
<g xmlns="http://www.w3.org/2000/svg">
</g>
<g xmlns="http://www.w3.org/2000/svg">
</g>
<g xmlns="http://www.w3.org/2000/svg">
</g>
</g></svg>
